<svg id="Ebene_1" data-name="Ebene 1" xmlns="http://www.w3.org/2000/svg" xmlns:xlink="http://www.w3.org/1999/xlink" width="1729.15513" height="444.90588" viewBox="0 0 1729.15513 444.90588" fill="#000"><defs><style>.cls-1 { clip-rule: evenodd; }
  .cls-2 { fill-rule: evenodd; }
  .cls-3 { clip-path: url(#clip-path); }
  .cls-4 { clip-path: url(#clip-path-2); }
  .cls-5 { clip-path: url(#clip-path-3); }
  .cls-6 { clip-path: url(#clip-path-4); }
  .cls-7 { clip-path: url(#clip-path-5); }
</style><clipPath id="clip-path"><path class="cls-1" d="M-1243.78541-1711.77353h-222.98812v222.22231l111.49349-.00009V-1600.099h111.49463Zm110.69129,222.45294h-222.45294v111.22647H-1578V-1823h444.90588Z"/></clipPath><clipPath id="clip-path-2"><path class="cls-1" d="M334.21459,111.22647H111.22647V333.44878L222.72,333.44869V222.901H334.21459ZM444.90588,333.67941H222.45294V444.90588H0V0H444.90588Z"/></clipPath><clipPath id="clip-path-3"><rect x="-1668.39706" y="-704.43431" width="17796.23532" height="12655.10067"/></clipPath><clipPath id="clip-path-4"><path class="cls-1" d="M-1243.78541-2720.77353h-222.98812v222.22231l111.49349-.00009V-2609.099h111.49463Zm110.69129,222.45294h-222.45294v111.22647H-1578V-2832h444.90588Z"/></clipPath><clipPath id="clip-path-5"><path class="cls-1" d="M-1150.78541,32.22647h-222.98812V254.44878l111.49349-.00009V143.901h111.49463Zm110.69129,222.45294h-222.45294V365.90588H-1485V-79h444.90588Z"/></clipPath></defs><path class="cls-2" d="M-1243.78541-1711.77353h-222.98812v222.22231l111.49349-.00009V-1600.099h111.49463Zm110.69129,222.45294h-222.45294v111.22647H-1578V-1823h444.90588Z"/><g class="cls-3"><rect x="-3246.39706" y="-2527.43431" width="17796.23532" height="12655.10067"/></g><path d="M667.82847,31.49463q14.90113,0,25.35987,4.33789a47.48427,47.48427,0,0,1,17.01758,11.45654,44.06806,44.06806,0,0,1,9.56542,16.23877,60.68263,60.68263,0,0,1,0,37.70606,43.87329,43.87329,0,0,1-9.56542,16.3501,47.44051,47.44051,0,0,1-17.01758,11.45654q-10.459,4.3374-25.35987,4.33789H631.12388v56.94775H596.19859V31.49463ZM658.263,106.23877a73.02674,73.02674,0,0,0,11.56739-.88965,26.8743,26.8743,0,0,0,9.78808-3.44775,18.79745,18.79745,0,0,0,6.78467-7.23Q688.95788,90,688.96177,82.43653q0-7.56006-2.55859-12.23487a18.82154,18.82154,0,0,0-6.78467-7.23,27.00092,27.00092,0,0,0-9.78808-3.44775,73.43168,73.43168,0,0,0-11.56739-.89014H631.12388v47.605Z"/><path d="M836.66881,31.49463A51.15776,51.15776,0,0,1,855.911,34.94287,44.3667,44.3667,0,0,1,870.59263,44.397,41.09835,41.09835,0,0,1,879.9359,58.3003a44.62468,44.62468,0,0,1,3.22558,17.01757q0,14.01491-5.895,24.24756-5.89673,10.23414-19.24219,15.57178v.44482a26.97631,26.97631,0,0,1,10.67774,5.4502,30.26246,30.26246,0,0,1,6.896,8.67529,40.42548,40.42548,0,0,1,3.89306,11.01172,96.26842,96.26842,0,0,1,1.66846,12.01221q.219,3.78516.44482,8.89844.219,5.11962.77832,10.45507a69.6519,69.6519,0,0,0,1.77979,10.12159,23.27243,23.27243,0,0,0,3.6709,8.11962h-34.9253a61.50449,61.50449,0,0,1-3.55957-18.01855q-.66723-10.45386-2.00195-20.021-1.78344-12.45557-7.56348-18.24121-5.78686-5.78173-18.9082-5.78369H785.94957v62.06445h-34.9253V31.49463Zm-12.45752,71.85254q12.01245,0,18.019-5.33887,6.00586-5.33936,6.00586-17.35156,0-11.56421-6.00586-16.79492-6.0066-5.22437-18.019-5.228H785.94957v44.71338Z"/><path d="M916.52623,78.54346a79.378,79.378,0,0,1,15.34961-26.583,70.19557,70.19557,0,0,1,24.58105-17.79639q14.56641-6.449,32.81153-6.45117,18.46141,0,32.92285,6.45117A70.46562,70.46562,0,0,1,1046.661,51.96045a79.378,79.378,0,0,1,15.34961,26.583,99.247,99.247,0,0,1,5.33887,33.03418,95.92128,95.92128,0,0,1-5.33887,32.36719A77.29545,77.29545,0,0,1,1046.661,170.083a70.52419,70.52419,0,0,1-24.46972,17.4624q-14.4624,6.33986-32.92285,6.33985-18.24316,0-32.81153-6.33985a70.26039,70.26039,0,0,1-24.58105-17.4624,77.29545,77.29545,0,0,1-15.34961-26.13818,95.92128,95.92128,0,0,1-5.33887-32.36719A99.247,99.247,0,0,1,916.52623,78.54346Zm31.92187,52.499a52.5234,52.5234,0,0,0,7.45215,17.01758,38.1436,38.1436,0,0,0,13.34766,12.12354q8.22655,4.56225,20.02051,4.56054,11.78758,0,20.0205-4.56054a38.19444,38.19444,0,0,0,13.34766-12.12354,52.60711,52.60711,0,0,0,7.45215-17.01758,80.87369,80.87369,0,0,0,2.33594-19.46484,86.96706,86.96706,0,0,0-2.33594-20.24316,53.66906,53.66906,0,0,0-7.45215-17.46241,37.851,37.851,0,0,0-13.34766-12.23486q-8.23242-4.55714-20.0205-4.56055-11.79346,0-20.02051,4.56055a37.80131,37.80131,0,0,0-13.34766,12.23486,53.58533,53.58533,0,0,0-7.45215,17.46241,86.96705,86.96705,0,0,0-2.33593,20.24316A80.87369,80.87369,0,0,0,948.4481,131.04248Z"/><path d="M1189.03111,157.40332a43.2017,43.2017,0,0,1-7.11816,17.46241q-5.56348,8.12328-16.01661,13.56982-10.459,5.44776-28.252,5.44971a67.52544,67.52544,0,0,1-19.35351-2.78028,48.3792,48.3792,0,0,1-16.6836-8.67578,42.92285,42.92285,0,0,1-11.79-15.127q-4.45312-9.22852-4.44922-22.35645v-13.792h31.58887V138.272a59.61017,59.61017,0,0,0,.88965,10.67773,22.65469,22.65469,0,0,0,3.11426,8.34228,15.55686,15.55686,0,0,0,6.11719,5.4502,22.13273,22.13273,0,0,0,10.12207,2.00195q6.89208,0,10.67773-2.44726a14.0335,14.0335,0,0,0,5.44922-6.33985,26.1284,26.1284,0,0,0,2.00293-8.45312q.33252-4.5564.333-8.78662V31.49463h34.92578V140.27442A105.04537,105.04537,0,0,1,1189.03111,157.40332Z"/><path d="M1346.5272,31.49463V60.8584H1262.663V94.894h76.96875v27.13916H1262.663V160.9624h85.64453v29.36377H1227.73814V31.49463Z"/><path d="M1480.22056,73.87207a35.1818,35.1818,0,0,0-7.78515-8.78711,36.46192,36.46192,0,0,0-22.91309-8.0083q-11.79345,0-20.02051,4.56055a37.8012,37.8012,0,0,0-13.34765,12.23486,53.58511,53.58511,0,0,0-7.45215,17.46241,86.96706,86.96706,0,0,0-2.33594,20.24316,80.87369,80.87369,0,0,0,2.33594,19.46484,52.52319,52.52319,0,0,0,7.45215,17.01758,38.14348,38.14348,0,0,0,13.34765,12.12354q8.22657,4.56225,20.02051,4.56054,16.01661,0,25.02637-9.78808,9.00879-9.7859,11.01074-25.8042h33.81348a80.81726,80.81726,0,0,1-6.89649,26.9165,64.49807,64.49807,0,0,1-14.68164,20.46582,62.40152,62.40152,0,0,1-21.35547,12.90235,78.27829,78.27829,0,0,1-26.917,4.44873q-18.24316,0-32.81152-6.33985a70.26034,70.26034,0,0,1-24.58106-17.4624,77.29561,77.29561,0,0,1-15.34961-26.13818,95.92128,95.92128,0,0,1-5.33886-32.36719,99.247,99.247,0,0,1,5.33886-33.03418,79.37816,79.37816,0,0,1,15.34961-26.583,70.19551,70.19551,0,0,1,24.58106-17.79639q14.56641-6.449,32.81152-6.45117a80.06657,80.06657,0,0,1,24.80371,3.78174,67.23837,67.23837,0,0,1,20.91016,11.01172,59.54459,59.54459,0,0,1,15.23828,17.90723A64.04631,64.04631,0,0,1,1518.038,84.8833h-33.8125A28.56275,28.56275,0,0,0,1480.22056,73.87207Z"/><path d="M1537.16783,60.8584V31.49463h130.13574V60.8584H1619.6981V190.32617h-34.9248V60.8584Z"/><path d="M667.82847,241.5874q14.90113,0,25.35987,4.3379a47.48415,47.48415,0,0,1,17.01758,11.45654,44.06992,44.06992,0,0,1,9.56542,16.23926,60.67952,60.67952,0,0,1,0,37.70507,43.86754,43.86754,0,0,1-9.56542,16.35059,47.4332,47.4332,0,0,1-17.01758,11.45605q-10.459,4.33887-25.35987,4.3379H631.12388V400.419H596.19859V241.5874ZM658.263,316.332a73.0846,73.0846,0,0,0,11.56739-.88964,26.90167,26.90167,0,0,0,9.78808-3.44825,18.79259,18.79259,0,0,0,6.78467-7.22949q2.5547-4.67284,2.55859-12.23535,0-7.56006-2.55859-12.23535a18.82012,18.82012,0,0,0-6.78467-7.22949,27.0103,27.0103,0,0,0-9.78808-3.44825,73.43245,73.43245,0,0,0-11.56739-.88965H631.12388V316.332Z"/><path d="M836.89146,241.5874a51.15765,51.15765,0,0,1,19.24219,3.44825,44.3602,44.3602,0,0,1,14.68164,9.45459,41.08876,41.08876,0,0,1,9.34326,13.90332,44.62271,44.62271,0,0,1,3.22559,17.01758q0,14.01416-5.895,24.24707-5.89673,10.23486-19.24219,15.57128v.44532a26.9763,26.9763,0,0,1,10.67774,5.45019,30.26453,30.26453,0,0,1,6.896,8.67578,40.4246,40.4246,0,0,1,3.89307,11.01075,96.301,96.301,0,0,1,1.66845,12.01269q.219,3.78516.44483,8.89844.219,5.11962.77832,10.45508a69.65864,69.65864,0,0,0,1.77978,10.12207,23.27413,23.27413,0,0,0,3.6709,8.11914H853.13072a61.501,61.501,0,0,1-3.55957-18.01856q-.66723-10.45312-2.00195-20.0205-1.78346-12.45558-7.56348-18.24122-5.78686-5.78319-18.9082-5.78418h-34.9253V400.419H751.24693V241.5874Zm-12.45752,71.85206q12.01245,0,18.019-5.33887,6.00585-5.3379,6.00585-17.35059,0-11.56494-6.00585-16.7959-6.0066-5.22363-18.019-5.22754H786.17222v44.7129Z"/><path d="M916.97154,288.63672a79.35878,79.35878,0,0,1,15.34961-26.583,70.19662,70.19662,0,0,1,24.58105-17.79687q14.56641-6.449,32.81153-6.45117,18.46141,0,32.92285,6.45117a70.46682,70.46682,0,0,1,24.46973,17.79687,79.35912,79.35912,0,0,1,15.34961,26.583,99.2408,99.2408,0,0,1,5.33886,33.03418,95.91551,95.91551,0,0,1-5.33886,32.36621,77.29328,77.29328,0,0,1-15.34961,26.13867,70.53175,70.53175,0,0,1-24.46973,17.46289q-14.4624,6.33986-32.92285,6.33985-18.24317,0-32.81153-6.33985a70.26771,70.26771,0,0,1-24.58105-17.46289,77.293,77.293,0,0,1-15.34961-26.13867,95.91551,95.91551,0,0,1-5.33887-32.36621A99.2408,99.2408,0,0,1,916.97154,288.63672Zm31.92188,52.498a52.52382,52.52382,0,0,0,7.45214,17.01855,38.15159,38.15159,0,0,0,13.34766,12.123q8.22656,4.563,20.02051,4.56055,11.7876,0,20.02051-4.56055a38.20233,38.20233,0,0,0,13.34765-12.123,52.60775,52.60775,0,0,0,7.45215-17.01855A80.86578,80.86578,0,0,0,1032.87,321.6709a86.95786,86.95786,0,0,0-2.33594-20.24316,53.66712,53.66712,0,0,0-7.45215-17.46289,37.85685,37.85685,0,0,0-13.34765-12.23536q-8.23244-4.55565-20.02051-4.55957-11.79347,0-20.02051,4.55957a37.80728,37.80728,0,0,0-13.34766,12.23536,53.58317,53.58317,0,0,0-7.45214,17.46289,86.95732,86.95732,0,0,0-2.33594,20.24316A80.86528,80.86528,0,0,0,948.89342,341.13477Z"/><path d="M1200.15318,283.96485a35.18149,35.18149,0,0,0-7.78516-8.78711,36.46536,36.46536,0,0,0-22.91308-8.00782q-11.79346,0-20.02051,4.55957a37.80728,37.80728,0,0,0-13.34766,12.23536,53.58317,53.58317,0,0,0-7.45214,17.46289,86.95786,86.95786,0,0,0-2.33594,20.24316,80.86578,80.86578,0,0,0,2.33594,19.46387,52.52382,52.52382,0,0,0,7.45214,17.01855,38.15159,38.15159,0,0,0,13.34766,12.123q8.22657,4.563,20.02051,4.56055,16.01659,0,25.02637-9.78809,9.00879-9.78661,11.01074-25.80469h33.81347a80.81384,80.81384,0,0,1-6.89648,26.917A64.49818,64.49818,0,0,1,1217.7274,386.627a62.4015,62.4015,0,0,1-21.35547,12.90234,78.27831,78.27831,0,0,1-26.917,4.44922q-18.24316,0-32.81152-6.33985a70.26766,70.26766,0,0,1-24.58106-17.46289,77.293,77.293,0,0,1-15.34961-26.13867,95.91551,95.91551,0,0,1-5.33887-32.36621,99.2408,99.2408,0,0,1,5.33887-33.03418,79.35878,79.35878,0,0,1,15.34961-26.583,70.19657,70.19657,0,0,1,24.58106-17.79687q14.5664-6.449,32.81152-6.45117a80.06686,80.06686,0,0,1,24.80371,3.78173,67.23859,67.23859,0,0,1,20.91016,11.01172,59.54073,59.54073,0,0,1,15.23828,17.90772,64.03829,64.03829,0,0,1,7.56347,24.46972h-33.8125A28.55891,28.55891,0,0,0,1200.15318,283.96485Z"/><path d="M1386.34556,388.29492q-18.01758,15.68409-49.8291,15.6836-32.25732,0-49.94043-15.57227-17.68506-15.56835-17.68554-48.0498v-98.769h34.92578v98.769a71.68915,71.68915,0,0,0,1.1123,12.67969,24.6619,24.6619,0,0,0,14.57031,18.79785q6.33985,3.00293,17.01758,3.00293,18.68555,0,25.80469-8.3418,7.11621-8.34228,7.11816-26.13867v-98.769h34.92481v98.769Q1404.36412,372.61377,1386.34556,388.29492Z"/><path d="M1526.71275,241.5874a51.15226,51.15226,0,0,1,19.24219,3.44825,44.36459,44.36459,0,0,1,14.68262,9.45459,41.08757,41.08757,0,0,1,9.34277,13.90332,44.6134,44.6134,0,0,1,3.22559,17.01758q0,14.01416-5.89551,24.24707-5.896,10.23486-19.24219,15.57128v.44532a26.98394,26.98394,0,0,1,10.67871,5.45019,30.27132,30.27132,0,0,1,6.89551,8.67578,40.4239,40.4239,0,0,1,3.89258,11.01075,96.30445,96.30445,0,0,1,1.66894,12.01269q.21827,3.78516.44434,8.89844.21972,5.11962.77929,10.45508a69.66069,69.66069,0,0,0,1.7793,10.12207,23.27413,23.27413,0,0,0,3.6709,8.11914H1542.952a61.50249,61.50249,0,0,1-3.55859-18.01856q-.668-10.45312-2.00293-20.0205-1.78272-12.45558-7.5625-18.24122-5.7876-5.78319-18.90918-5.78418H1475.994V400.419h-34.9248V241.5874Zm-12.457,71.85206q12.01318,0,18.01855-5.33887,6.00734-5.3379,6.00684-17.35059,0-11.56494-6.00684-16.7959-6.00585-5.22363-18.01855-5.22754H1475.994v44.7129Z"/><path d="M1727.37486,241.5874v29.36377H1643.5106v34.03516h76.96875V332.126H1643.5106v38.92871h85.64453V400.419H1608.5858V241.5874Z"/><path class="cls-2" d="M334.21459,111.22647H111.22647V333.44878L222.72,333.44869V222.901H334.21459ZM444.90588,333.67941H222.45294V444.90588H0V0H444.90588Z"/><g class="cls-4" fill="#eb0023"><rect x="-1668.39706" y="-704.43431" width="17796.23532" height="12655.10067"/><g class="cls-5"><rect x="-61.79248" y="-61.79248" width="568.49085" height="568.49085"/></g></g><path class="cls-2" d="M-1243.78541-2720.77353h-222.98812v222.22231l111.49349-.00009V-2609.099h111.49463Zm110.69129,222.45294h-222.45294v111.22647H-1578V-2832h444.90588Z"/><g class="cls-6"><rect x="-3246.39706" y="-3536.43431" width="17796.23532" height="12655.10067"/></g><path class="cls-2" d="M-1150.78541,32.22647h-222.98812V254.44878l111.49349-.00009V143.901h111.49463Zm110.69129,222.45294h-222.45294V365.90588H-1485V-79h444.90588Z"/><g class="cls-7"><rect x="-3153.39706" y="-783.43431" width="17796.23532" height="12655.10067"/></g></svg>
